# xmcd
#
# Track frame offsets:
#	150
#	15322
#	30058
#	46933
#	60913
#	79093
#	95231
#	109561
#	122816
#	136701
#	151243
#
# Disc length: 2214 seconds
#
# Revision: 2
# Processed by: cddbd v1.5.2PL0 Copyright (c) Steve Scherf et al.
# Submitted via: EZCDAudioConverter 5.0.5.1
#
DISCID=7208a40b
DTITLE=Tyler Farr - Suffer In Peace
DYEAR=2015
DGENRE=Country
TTITLE0=Tyler Farr - C.O.U.N.T.R.Y.
TTITLE1=Tyler Farr - A Guy Walks Into A Bar
TTITLE2=Tyler Farr - Withdrawals
TTITLE3=Tyler Farr with Jason Aldean - Damn Good Friends
TTITLE4=Tyler Farr - Suffer In Peace
TTITLE5=Tyler Farr - Raised To Pray
TTITLE6=Tyler Farr - Criminal
TTITLE7=Tyler Farr - Better In Boots
TTITLE8=Tyler Farr - Poor Boy
TTITLE9=Tyler Farr - I Don't Even Want This Beer
TTITLE10=Tyler Farr - Why We Live Here
EXTD=
EXTT0=
EXTT1=
EXTT2=
EXTT3=
EXTT4=
EXTT5=
EXTT6=
EXTT7=
EXTT8=
EXTT9=
EXTT10=
PLAYORDER=
